<svg xmlns="http://www.w3.org/2000/svg" viewBox="0 0 288.4 102.2"><defs><style>.cls-1{fill:#b28956;}</style></defs><g id="&#x5716;&#x5C64;_2" data-name="&#x5716;&#x5C64; 2"><g id="&#x5716;&#x5C64;_1-2" data-name="&#x5716;&#x5C64; 1"><path class="cls-1" d="M22,26.7c-7.1-2.6-11.5-6.2-11.5-10.2,0-8.1,18.2-14.7,40.6-14.7S91.8,8.4,91.8,16.5c0,4-4.4,7.6-11.5,10.2,13.3-2.6,22-7,22-12C102.3,6.6,79.4,0,51.1,0S0,6.6,0,14.7c0,5,8.7,9.4,22,12Z"></path><path class="cls-1" d="M81.4,22.9c0-5.6-13.5-10.2-30.3-10.2S20.9,17.3,20.9,22.9a4,4,0,0,0,.3,1.5h-.3c7.2,15.1,28.4,8.3,28.4,27.4s-5.5,21-8.8,34.1a12.4,12.4,0,0,0-1,4.7,11.7,11.7,0,0,0,21.3,6.5,11.4,11.4,0,0,0,2-6.5,10.4,10.4,0,0,0-1-4.7C58.8,72.8,53,74.3,53,51.8c0-19.1,21.2-12.3,28.4-27.4h-.3a4,4,0,0,0,.3-1.5Z"></path><path class="cls-1" d="M134.7,13.5h17.4l.4.3.4.8a51.1,51.1,0,0,0-.4,5.3c-.1,1.4-.1,2.9-.1,4.3a41,41,0,0,0,.5,7.8c.3,1.5.6,2.3.9,2.3s.3-.1.4-.4a10.2,10.2,0,0,0,.5-2.6c0-.1.1-.1.2-.1s.2,0,.2.1l.9.7c.1,0,.1.1.1.4a10.8,10.8,0,0,1-1.4,3.8,1,1,0,0,1-.9.6c-.5,0-1-.5-1.5-1.6a13.4,13.4,0,0,1-1.2-4.6,42.6,42.6,0,0,1-.5-6.4,85.8,85.8,0,0,1,.6-9H136.1V24a36.5,36.5,0,0,1-.5,6.5,16.4,16.4,0,0,1-1.2,4,9,9,0,0,1-1.4,2.2h-.2l-1-.7c0-.1-.1-.2-.1-.4a11.3,11.3,0,0,0,1.4-2.7,23.4,23.4,0,0,0,.9-3.8,36.8,36.8,0,0,0,.3-5.1V13.9a.4.4,0,0,1,.4-.4Zm13.6,4.6h-.4l-2.7.7-1.2.2v2.5h4.1c.3,0,.4.1.4.3v7.8c0,.2-.1.3-.4.3H144v3l3.7-.5a6.3,6.3,0,0,0-1-1.2c0-.2.4-.4,1.3-.9l2.1,2.9a19.6,19.6,0,0,1,1.3,2.5c0,.1-.6.3-1.7.5a6,6,0,0,0-.9-2.1h0l-11,1.3c-.3.5-.5.7-.7.7a6,6,0,0,1-1-2.2l6-.7h.1V30h-3.9c-.2,0-.4-.1-.4-.3V21.9c0-.2.2-.3.4-.3h3.9V19.4h-3.7a.5.5,0,0,1-.5-.3l-.8-1.1a.3.3,0,0,1,.3-.3H139l3.3-.2a10.9,10.9,0,0,0,2.5-.4,8.5,8.5,0,0,0,2.4-.9h.6c1,.9,1.5,1.4,1.5,1.6a.3.3,0,0,1-.3.3l-.7-.3Zm-1.6,10.3V23.2H144v5.2Zm-4.5,0V23.2h-2.4v5.2Z"></path><path class="cls-1" d="M187.6,14.6h-.5a15.3,15.3,0,0,1-3.4.9v1.9H189c.2,0,.2.1.2.3v.8c0,.3,0,.4-.2.4h-5.3v1.6h4.4c.3,0,.4.1.4.3v7.5c0,.2-.1.3-.4.3h-4.4v1.8h4.6c.2,0,.2.1.2.3v.8c0,.3,0,.4-.2.4h-4.6v1.8l3-.4,2.2-.3c.1,0,.1,0,.1.2a4.9,4.9,0,0,0-.1,1.2.2.2,0,0,1-.2.2l-2.5.3-8.8,1.4c-.1.5-.3.8-.5.8h-.3l-.6-2.3,5.9-.7V32h-4.7c-.1,0-.2-.1-.2-.4v-.8c0-.2.1-.3.2-.3h4.7V28.7h-4.5c-.2,0-.4-.1-.4-.3V20.9c0-.2.2-.3.4-.3h4.5V19h-5.4c-.1,0-.2-.1-.2-.4v-.8c0-.2.1-.3.2-.3h5.4V15.9a35.9,35.9,0,0,1-4.7.3.5.5,0,0,1-.5-.3,1.6,1.6,0,0,0-.3-.9c-.1-.1-.1-.2-.1-.4a43,43,0,0,0,5.8-.3,21.2,21.2,0,0,0,4.5-1.1l.4-.2.3.2c.8.7,1.2,1.1,1.2,1.3s-.1.5-.3.5l-.6-.4Zm-.9,12.6V25.4h-3v1.8Zm-4.8,0V25.4h-3v1.8Zm-3-3.3h3V22.2h-3v1.7Zm4.8-1.7v1.7h3V22.2Zm6.3-3.3h2.8c.1-1.1.1-2.3.1-3.5a19.7,19.7,0,0,0-.1-2.1c0-.1.1-.2.3-.2l1.9.2c.2,0,.3.1.3.2s0,.4-.2.5a.5.5,0,0,0-.5.5v4.4h4.5c.2,0,.3.2.3.4,0,4.6-.1,8-.3,10a31.7,31.7,0,0,1-.8,5.3,2.5,2.5,0,0,1-2.7,1.9c-1.1,0-1.8-.1-1.8-.5a4.2,4.2,0,0,0-.7-1.3v-.2h2.5c.7,0,1.1-.5,1.3-1.3a23.9,23.9,0,0,0,.5-4.3c.2-1.7.3-4.5.4-8.5h-3.3a40.1,40.1,0,0,1-.3,5.5,29.6,29.6,0,0,1-1.5,6.9,19.1,19.1,0,0,1-1.8,3.8h-.3l-1.6-.5c-.1-.1-.2-.2-.2-.3A15,15,0,0,0,191,32a19.3,19.3,0,0,0,1.4-5.2c.2-1.5.3-3.5.4-6.3H190a.3.3,0,0,1-.3-.3v-.9c0-.2.1-.4.3-.4Z"></path><path class="cls-1" d="M221.9,13.9h6.8a.3.3,0,0,1,.3.3V15c0,.3-.1.5-.3.5h-6.8c-.2,0-.3-.2-.3-.5v-.8a.3.3,0,0,1,.3-.3Zm-1.2,3.5h9.1c.2,0,.3.1.3.4v.8c0,.3-.1.4-.3.4h-9.1c-.2,0-.3-.1-.3-.4v-.8c0-.3.1-.4.3-.4Zm1.1,3.6h6.9c.2,0,.3.1.3.4v.8c0,.2-.1.4-.3.4h-6.9c-.2,0-.3-.2-.3-.4v-.8c0-.3.1-.4.3-.4Zm-.1,3.7h7c.2,0,.3.2.3.4v.8c0,.3-.1.4-.3.4h-7c-.2,0-.3-.1-.3-.4v-.8c0-.2.1-.4.3-.4Zm-.3,3.8H229c.3,0,.4.1.4.3v7.5c0,.2-.1.3-.4.3h-1c-.2,0-.4-.1-.4-.3v-.9h-4.8v1c0,.2-.1.3-.4.3h-1c-.3,0-.4-.1-.4-.3V28.9c0-.3.1-.4.4-.4Zm1.4,5.3h4.8V30.1h-4.8v3.7Zm10.6-20.1h6.1c.3,0,.4,0,.4.2v6a.5.5,0,0,0,.2.4h1.7a.7.7,0,0,0,.7-.4,8,8,0,0,0,.5-1.9c0-.1,0-.2.2-.2h.3l.9.3c.2.1.3.2.3.4a13,13,0,0,1-.8,2.9c-.2.5-.7.7-1.4.7h-2.6a3.1,3.1,0,0,1-1.5-.3,1,1,0,0,1-.3-.8V15h-3.3v1.3a14.2,14.2,0,0,1-.3,3.1,4.6,4.6,0,0,1-1.3,2.1,7.5,7.5,0,0,1-1.6,1.3l-.5-.2a2.7,2.7,0,0,0-.7-.8.4.4,0,0,1-.1-.3,5.8,5.8,0,0,0,2.5-2.7,9.5,9.5,0,0,0,.3-2.5V13.9c0-.2.1-.2.3-.2Zm-1.9,10.4h9.9l.4.2a2.8,2.8,0,0,1,.5.8,26.9,26.9,0,0,1-1.4,3.7,11.3,11.3,0,0,1-1.6,2.7l-.9,1.1a8.9,8.9,0,0,0,2.4,1.4,16.8,16.8,0,0,0,3.5,1c.1.1.2.1.2.2a.4.4,0,0,1-.1.3l-.9.9-.3.2h-.4l-2.3-.8a16.9,16.9,0,0,1-2.7-1.3l-.7-.6a16.1,16.1,0,0,1-2.8,1.7,13.9,13.9,0,0,1-2.9,1c-.2,0-.4,0-.5-.2l-.6-.8a.4.4,0,0,1-.1-.3c0-.1,0-.1.1-.2a14.1,14.1,0,0,0,2.2-.6,10.7,10.7,0,0,0,3.2-1.8.1.1,0,0,0-.1-.1,6.2,6.2,0,0,1-1.5-2.2,14.1,14.1,0,0,1-1.3-3.2v-.2c0-.1.5-.2,1.6-.3a12.3,12.3,0,0,0,.8,2.3,16.4,16.4,0,0,0,1.4,2.2c.2.1.3.3.4.4l1-1.2a11.7,11.7,0,0,0,1.5-2.7,11.3,11.3,0,0,0,.7-1.8h-8.7c-.2,0-.3-.2-.3-.5v-.8c0-.3.1-.4.3-.4Z"></path><path class="cls-1" d="M266.5,13.9h7.4a.3.3,0,0,1,.3.3V15c0,.3-.1.5-.3.5h-7.4c-.2,0-.3-.2-.3-.5v-.8a.3.3,0,0,1,.3-.3Zm-1.6,3.5h10.8c.2,0,.3.1.3.4v.8c0,.3-.1.4-.3.4H264.9c-.2,0-.3-.1-.3-.4v-.8c0-.3.1-.4.3-.4Zm1.5,3.6h7.7c.2,0,.3.1.3.4v.8c0,.2-.1.4-.3.4h-7.7c-.2,0-.3-.2-.3-.4v-.8c0-.3.1-.4.3-.4Zm-.1,3.5h7.8c.2,0,.3.2.3.4v.9a.3.3,0,0,1-.3.3h-7.8a.3.3,0,0,1-.3-.3v-.9c0-.2.1-.4.3-.4Zm-.2,3.9h8.1c.3,0,.5.1.5.3v7.7c0,.2-.2.3-.5.3h-1c-.2,0-.4-.1-.4-.3V35.2h-5.3v1.2c0,.2-.1.3-.4.3h-1c-.3,0-.4-.1-.4-.3V28.8c0-.3.1-.4.4-.4Zm1.4,5.2h5.3V30h-5.3v3.6Zm8.8-12.9h4.9v-7c0-.3.1-.4.4-.4s1.9.1,1.9.4-.1.3-.2.3-.3.2-.3.5v6.2h5.1c.2,0,.3.2.3.5V22c0,.3-.1.4-.3.4H283v14c0,.2-.1.3-.4.3h-1c-.3,0-.4-.1-.4-.3v-14h-4.9c-.2,0-.3-.1-.3-.4v-.8c0-.3.1-.5.3-.5Z"></path><path class="cls-1" d="M135.9,58.3v4.9a.8.8,0,0,0,.2.5l.5.3v.3H132V64l.6-.3a.7.7,0,0,0,.1-.5V50.7a.7.7,0,0,0-.1-.5.8.8,0,0,0-.6-.2v-.4h9.2l2.5.2a4.5,4.5,0,0,1,1.7.8,3.3,3.3,0,0,1,1.2,1.4,6.5,6.5,0,0,1,.4,2,4.7,4.7,0,0,1-.8,2.6,3.8,3.8,0,0,1-1.8,1.3,9.6,9.6,0,0,1-3.2.4Zm0-2.4h4.9a5.1,5.1,0,0,0,2.1-.3l.6-.6a3.6,3.6,0,0,0,.2-1,3,3,0,0,0-.2-1l-.6-.7a5.1,5.1,0,0,0-2.1-.3h-4.9v3.9Z"></path><path class="cls-1" d="M155.2,56.4v6.8a.8.8,0,0,0,.2.5l.5.3v.3h-4V64l.6-.3a.7.7,0,0,0,.1-.5V53.3a.7.7,0,0,0-.1-.5l-.6-.3v-.3h4.7v.3c-.4.1-.5.3-.5.5a1.5,1.5,0,0,0,.3.6l6.5,6.4V53.3a.8.8,0,0,0-.2-.5l-.5-.3v-.3h4v.3l-.5.3a.8.8,0,0,0-.2.5v9.9a.8.8,0,0,0,.2.5l.5.3v.3h-4.3V64c.3-.1.5-.2.5-.4s-.1-.2-.2-.3l-.6-.6-6.4-6.3Z"></path><path class="cls-1" d="M175.2,59.2v2.9h8.2a1.6,1.6,0,0,0,.3-.6h.3V65h-.3a1.1,1.1,0,0,0-.3-.5.6.6,0,0,0-.5-.2H171.6V64l.6-.3a.7.7,0,0,0,.1-.5V53.3a.7.7,0,0,0-.1-.5l-.6-.3v-.3H183a.5.5,0,0,0,.3-.5h.3v3.5h-.3a.5.5,0,0,0-.3-.5.6.6,0,0,0-.5-.2h-7.3v2.7h4.5a1.1,1.1,0,0,0,.6-.2.8.8,0,0,0,.2-.5h.3v3.5h-.3a.8.8,0,0,0-.2-.6h-5.1Z"></path><path class="cls-1" d="M201.7,53.3v6.4a5.4,5.4,0,0,1-.8,3.2c-1,1.1-2.7,1.7-5.3,1.7a9.3,9.3,0,0,1-4.1-.8,3.3,3.3,0,0,1-1.6-1.7,7.5,7.5,0,0,1-.4-2.4V53.3a.7.7,0,0,0-.1-.5l-.6-.3v-.3h4.3v.3l-.5.3a.8.8,0,0,0-.2.5v5.8a6.3,6.3,0,0,0,.2,1.6,2.4,2.4,0,0,0,.6.9,4.7,4.7,0,0,0,2.6.7,4.4,4.4,0,0,0,2.5-.7,2.4,2.4,0,0,0,.6-.9,6.3,6.3,0,0,0,.2-1.6V53.3a.8.8,0,0,0-.2-.5l-.5-.3v-.3h4v.3l-.5.3a.8.8,0,0,0-.2.5Z"></path><path class="cls-1" d="M215.3,64.3l-4.4-7.9v6.8a.8.8,0,0,0,.2.5l.5.3v.3h-4V64l.5-.3a.8.8,0,0,0,.2-.5V53.3a.8.8,0,0,0-.2-.5l-.5-.3v-.3h5.1v.3c-.3.2-.5.4-.5.7a1.6,1.6,0,0,0,.4,1l3,5.5,3-5.4a4.2,4.2,0,0,0,.5-1.2.6.6,0,0,0-.5-.6v-.3h4.9v.3l-.5.3a.8.8,0,0,0-.2.5v9.9a.8.8,0,0,0,.2.5l.5.3v.3h-4.2V64l.5-.3a.8.8,0,0,0,.2-.5V56.4l-4.7,7.9Z"></path><path class="cls-1" d="M238.1,61.3h-5.5l-.7,1.3-.2.7c0,.4.2.6.7.7v.3H228V64l.6-.2a2.9,2.9,0,0,0,.4-.8l4.4-8.9a1.6,1.6,0,0,0,.3-.9c0-.3-.2-.5-.6-.7v-.3h4.7v.3c-.4.2-.6.4-.6.8a3.1,3.1,0,0,0,.2.8l4.6,8.7.6.9.7.3v.3h-5V64c.5-.1.7-.3.7-.7a3.1,3.1,0,0,0-.2-.8l-.7-1.2Zm-.9-1.7-1.9-3.9-1.9,3.9Z"></path><path class="cls-1" d="M254.2,54.4v8.8a.8.8,0,0,0,.2.5l.5.3v.3h-4.3V64l.6-.3a.7.7,0,0,0,.1-.5V54.4h-3.5a.6.6,0,0,0-.5.2.5.5,0,0,0-.3.5h-.3V51.6h.3a.8.8,0,0,0,.2.5h11.1l.3-.5h.3v3.5h-.3l-.3-.5-.5-.2Z"></path><path class="cls-1" d="M267,53.3v9.9a.7.7,0,0,0,.1.5l.6.3v.3h-4.3V64l.5-.3a.8.8,0,0,0,.2-.5V53.3a.8.8,0,0,0-.2-.5l-.5-.3v-.3h4.3v.3l-.6.3a.7.7,0,0,0-.1.5Z"></path><path class="cls-1" d="M284.9,60l1.8,2.6-.2.2-.5-.2-.8.4a11.4,11.4,0,0,1-2.6,1.2,10.1,10.1,0,0,1-2.6.4,7.3,7.3,0,0,1-4.8-1.5,5.5,5.5,0,0,1-1.7-2,6.8,6.8,0,0,1-.7-2.8,5.8,5.8,0,0,1,1.3-3.8c1.2-1.7,3.2-2.5,5.9-2.5a10.9,10.9,0,0,1,2.6.3,9.8,9.8,0,0,1,2.6,1.2l.8.4.5-.2.2.2-1.8,2.7-.3-.2v-.2h0q0-.6-1.5-1.2a6.6,6.6,0,0,0-2.7-.6,5,5,0,0,0-3.3,1,3.9,3.9,0,0,0,0,6,5.9,5.9,0,0,0,3.3,1,6.7,6.7,0,0,0,3-.8c.8-.4,1.2-.7,1.2-1a.8.8,0,0,0-.1-.3l.3-.2Z"></path></g></g></svg>